<svg xmlns="http://www.w3.org/2000/svg" width="24" height="24"><path d="m22.422 20.324-4.219-10.219a1.03 1.03 0 0 0-.953-.636c-.418 0-.793.25-.953.636l-4.219 10.22c-.144.34-.094.734.133 1.027.223.293.59.441.957.394.363-.05.676-.293.816-.633l.86-2.082h4.812l.86 2.082a1.03 1.03 0 0 0 1.808.18c.192-.29.227-.648.098-.969m-6.727-3.355 1.555-3.766 1.555 3.766ZM12.555 16.074a1.03 1.03 0 0 0-.23-1.437c-.009-.008-.704-.524-1.708-1.63 1.856-2.515 2.91-5.378 3.34-6.726h1.512a1.03 1.03 0 1 0 0-2.062H10.03V3.28a1.03 1.03 0 1 0-2.062 0v.938H2.53a1.03 1.03 0 1 0 0 2.062h9.246c-.445 1.262-1.27 3.258-2.52 5.078C7.786 9.406 7.239 8.145 7.23 8.133a1.03 1.03 0 0 0-1.898.797c.023.062.68 1.605 2.477 3.933l.128.164c-1.84 2.078-3.644 3.368-4.398 3.786a1.03 1.03 0 1 0 .984 1.812c.102-.059 2.282-1.262 4.766-4.012 1.055 1.125 1.781 1.66 1.824 1.692.223.16.5.226.77.183s.512-.191.672-.414m0 0" style="stroke:none;fill-rule:nonzero;fill:#000;fill-opacity:1"/></svg>