<?xml version="1.0" encoding="UTF-8" standalone="no"?>
<svg
   width="24"
   height="24"
   viewBox="0 0 24 24"
   fill="none"
   stroke="currentColor"
   stroke-width="2"
   stroke-linecap="round"
   stroke-linejoin="round"
   class="feather feather-activity"
   version="1.1"
   id="svg4"
   sodipodi:docname="logo_button.svg"
   inkscape:version="1.1.2 (0a00cf5339, 2022-02-04)"
   xmlns:inkscape="http://www.inkscape.org/namespaces/inkscape"
   xmlns:sodipodi="http://sodipodi.sourceforge.net/DTD/sodipodi-0.dtd"
   xmlns="http://www.w3.org/2000/svg"
   xmlns:svg="http://www.w3.org/2000/svg">
  <defs
     id="defs8" />
  <sodipodi:namedview
     id="namedview6"
     pagecolor="#505050"
     bordercolor="#ffffff"
     borderopacity="1"
     inkscape:pageshadow="0"
     inkscape:pageopacity="0"
     inkscape:pagecheckerboard="1"
     showgrid="false"
     inkscape:zoom="35.916666"
     inkscape:cx="18.459397"
     inkscape:cy="15.36891"
     inkscape:window-width="1920"
     inkscape:window-height="1028"
     inkscape:window-x="0"
     inkscape:window-y="24"
     inkscape:window-maximized="1"
     inkscape:current-layer="svg4" />
  <path
     d="m 2.7644319,5.098983 c 0,0.013491 -0.00138,0.014978 -0.014449,0.014978 -0.013015,0 -0.014449,0.00146 -0.014449,0.014978 0,0.013461 -0.00138,0.014978 -0.014449,0.014978 h -0.01444 V 9.2350835 13.326258 H 1.4085462 0.11044752 v 0.01497 c 0,0.01349 -0.001379,0.01498 -0.01444756,0.01498 -0.01301428,0 -0.01444753,0.0014 -0.01444753,0.01497 0,0.0135 -0.0013794,0.01498 -0.01444657,0.01498 H 0.05266115 v 1.34541 1.345415 h 0.01444753 c 0.01301429,0 0.01444756,0.0014 0.01444756,0.01497 0,0.0135 0.0013795,0.01496 0.01444753,0.01496 0.01301429,0 0.01444756,0.0014 0.01444756,0.01497 v 0.01498 H 2.7355499 5.3606497 v -0.01498 c 0,-0.01348 0.00138,-0.01497 0.014449,-0.01497 0.013013,0 0.014449,-0.0014 0.014449,-0.01496 0,-0.01348 0.00138,-0.01497 0.014449,-0.01497 h 0.014447 v -4.09116 -4.0911738 h 2.6178754 2.6178719 v 4.0886748 4.088674 H 9.3584923 8.0628032 v 0.01498 c 0,0.01349 -0.00139,0.01497 -0.01445,0.01497 -0.013019,0 -0.014451,0.0014 -0.014451,0.01497 0,0.01348 -0.00139,0.01498 -0.014451,0.01498 h -0.014451 v 1.345412 1.345416 h 0.01445 c 0.013017,0 0.014451,0.0014 0.014451,0.01497 0,0.01349 0.00139,0.01497 0.014451,0.01497 0.01299,0 0.01445,0.0014 0.01445,0.01498 v 0.01497 h 3.9496898 3.949693 v -0.01497 c 0,-0.0135 0.0013,-0.01498 0.01444,-0.01498 0.01303,0 0.01446,-0.0014 0.01446,-0.01497 0,-0.01348 0.0013,-0.01497 0.01444,-0.01497 h 0.01445 V 17.47729 16.131875 h -0.01445 c -0.01304,0 -0.01444,-0.0014 -0.01444,-0.01498 0,-0.01347 -0.0013,-0.01497 -0.01446,-0.01497 -0.013,0 -0.01444,-0.0015 -0.01444,-0.01497 v -0.01496 H 14.664077 13.365981 V 11.983312 7.8946373 h 2.620287 2.62028 v 4.0911737 4.091166 h 0.01446 c 0.01303,0 0.01445,0.0014 0.01445,0.01498 0,0.01347 0.0013,0.01497 0.01446,0.01497 0.013,0 0.01446,0.0014 0.01446,0.01496 v 0.01497 h 2.622696 2.622694 v -0.01497 c 0,-0.01349 0.0013,-0.01496 0.01444,-0.01496 0.013,0 0.01444,-0.0015 0.01444,-0.01497 0,-0.01349 0.0013,-0.01498 0.01447,-0.01498 h 0.01445 v -1.345414 -1.345414 h -0.01445 c -0.01304,0 -0.01447,-0.0017 -0.01447,-0.01498 0,-0.01347 -0.0013,-0.01497 -0.01444,-0.01497 -0.01302,0 -0.01444,-0.0014 -0.01444,-0.01497 v -0.01496 H 22.614035 21.318346 V 9.2350952 5.1439283 h -0.01446 c -0.01303,0 -0.01446,-0.00145 -0.01446,-0.014978 0,-0.01349 -0.0013,-0.014978 -0.01446,-0.014978 -0.013,0 -0.01445,-0.00146 -0.01445,-0.014978 V 5.0839974 H 12.012474 2.764413 Z"
     id="path2"
     style="fill:#000000;stroke-width:0.00980735" />
</svg>
